# xmcd
#
# Track frame offsets: 
#        150
#        22642
#        44186
#        65313
#        91221
#        112030
#        133553
#        147782
#        162157
#        180326
#        198671
#
# Disc length: 2861 seconds
#
# Revision: 0
# Processed by: cddbd v1.5.2PL0 Copyright (c) Steve Scherf et al.
# Submitted via: ExactAudioCopy v0.99pb5
#
DISCID=900b2b0b
DTITLE=Van Wilks - Texas Jukin
DYEAR=2004
DGENRE=Blues
TTITLE0=badly mistaken
TTITLE1=stone cold day
TTITLE2=cold side of cool
TTITLE3=valley of fires
TTITLE4=crazy inside
TTITLE5=holy roller
TTITLE6=texas jukin'
TTITLE7=go down easy
TTITLE8=little mona and the scorpion
TTITLE9=blues for delphine
TTITLE10=down island girl
EXTD=
EXTT0=
EXTT1=
EXTT2=
EXTT3=
EXTT4=
EXTT5=
EXTT6=
EXTT7=
EXTT8=
EXTT9=
EXTT10=
PLAYORDER=
